# xmcd CD database file
#
# Track frame offsets:
#       150
#       12885
#       32575
#       45472
#       60920
#       74370
#       89885
#       106497
#       120204
#       138510
#       155197
#       165707
#
# Disc length: 2470 seconds
#
# Revision: 1
# Processed by: cddbd v1.4PL0 Copyright (c) Steve Scherf et al.
# Submitted via: crip v3.4 (http://bach.dynet.com/crip)
#
DISCID=9c09a40c
DTITLE=Blue Mule - Suits 'n Boots
DYEAR=1995
DGENRE=country
TTITLE0=Rain, Rain, Rain
TTITLE1=From This Pen
TTITLE2=Foolish Questions
TTITLE3=It's You Again
TTITLE4=Furtado's Fish Fry
TTITLE5=Far Side of Forever
TTITLE6=Cody's Tear
TTITLE7=Current River
TTITLE8=Time After Time
TTITLE9=Spring in the Old Country
TTITLE10=He Saved Me
TTITLE11=No Regrets
EXTD=
EXTT0=
EXTT1=
EXTT2=
EXTT3=
EXTT4=
EXTT5=
EXTT6=
EXTT7=
EXTT8=
EXTT9=
EXTT10=
EXTT11=
PLAYORDER=
